<?xml version="1.0" encoding="UTF-8" standalone="no"?>
<!-- Created with Inkscape (http://www.inkscape.org/) -->

<svg
   width="100"
   height="100"
   viewBox="0 0 26.458333 26.458334"
   version="1.1"
   id="svg1016"
   inkscape:version="1.1.2 (0a00cf5339, 2022-02-04)"
   sodipodi:docname="icon.svg"
   xmlns:inkscape="http://www.inkscape.org/namespaces/inkscape"
   xmlns:sodipodi="http://sodipodi.sourceforge.net/DTD/sodipodi-0.dtd"
   xmlns="http://www.w3.org/2000/svg"
   xmlns:svg="http://www.w3.org/2000/svg">
  <sodipodi:namedview
     id="namedview1018"
     pagecolor="#505050"
     bordercolor="#ffffff"
     borderopacity="1"
     inkscape:pageshadow="0"
     inkscape:pageopacity="0"
     inkscape:pagecheckerboard="1"
     inkscape:document-units="mm"
     showgrid="false"
     units="px"
     inkscape:zoom="2.114039"
     inkscape:cx="105.24877"
     inkscape:cy="96.02472"
     inkscape:window-width="1268"
     inkscape:window-height="995"
     inkscape:window-x="3204"
     inkscape:window-y="40"
     inkscape:window-maximized="0"
     inkscape:current-layer="layer1" />
  <defs
     id="defs1013" />
  <g
     inkscape:label="Layer 1"
     inkscape:groupmode="layer"
     id="layer1">
    <g
       id="g967"
       style="stroke-linecap:butt;stroke-linejoin:round"
       transform="matrix(2.5325082,0,0,2.5325082,-92.340293,-106.06746)">
      <g
         id="g966"
         transform="matrix(0.10678423,0,0,0.10678423,33.238445,34.220651)">
        <path
           id="path960"
           style="fill:#ffffff;stroke:none;stroke-width:1.25114"
           d="M 298.98828,275.01367 A 180.36269,181.05055 0 0 0 118.625,456.06445 a 180.36269,181.05055 0 0 0 21.42383,85.32032 l -13.49219,94.80078 94.78906,-16.73047 A 180.36269,181.05055 0 0 0 298.98828,637.11523 180.36269,181.05055 0 0 0 479.35156,456.06445 180.36269,181.05055 0 0 0 298.98828,275.01367 Z"
           transform="scale(0.26458333)" />
        <path
           id="path962"
           style="fill:#4285f4;fill-opacity:1;stroke:none;stroke-width:0.276201"
           d="m 79.043298,80.426634 a 39.870932,39.914242 0 0 0 -39.870951,39.914356 39.870932,39.914242 0 0 0 6.123141,21.20233 l -2.264463,16.81241 16.899228,-3.01274 a 39.870932,39.914242 0 0 0 19.113045,4.91236 39.870932,39.914242 0 0 0 39.870952,-39.91436 39.870932,39.914242 0 0 0 -39.870952,-39.914356 z" />
      </g>
      <path
         inkscape:connector-curvature="0"
         style="fill:#ffffff;fill-opacity:1;stroke:none;stroke-width:0.00443213;stroke-miterlimit:4;stroke-dasharray:none"
         d="m 40.795636,44.000939 a 0.74286166,0.74286166 0 0 0 -0.742992,0.742759 0.74286166,0.74286166 0 0 0 0.192399,0.497468 v 0.0027 a 0.712192,0.71773216 0 0 1 0.20612,0.504576 0.712192,0.71773216 0 0 1 -0.20612,0.504329 v 0.0027 a 0.74286166,0.74286166 0 0 0 -1.65e-4,3.17e-4 0.74286166,0.74286166 0 0 0 -0.04578,0.05609 0.74286166,0.74286166 0 0 0 -0.0027,0.0027 0.74286166,0.74286166 0 0 0 -0.03781,0.05651 0.74286166,0.74286166 0 0 0 -0.0055,0.0096 0.74286166,0.74286166 0 0 0 -0.02887,0.05472 0.74286166,0.74286166 0 0 0 -0.0055,0.011 0.74286166,0.74286166 0 0 0 -0.0231,0.05678 0.74286166,0.74286166 0 0 0 -0.0041,0.01375 0.74286166,0.74286166 0 0 0 -0.01595,0.05431 0.74286166,0.74286166 0 0 0 -0.0055,0.02379 0.74286166,0.74286166 0 0 0 -0.0096,0.04647 0.74286166,0.74286166 0 0 0 -0.0041,0.03025 0.74286166,0.74286166 0 0 0 -0.0041,0.04551 0.74286166,0.74286166 0 0 0 -8.93e-4,0.03396 0.74286166,0.74286166 0 0 0 0,3.02e-4 0.74286166,0.74286166 0 0 0 0,3.16e-4 0.74286166,0.74286166 0 0 0 0.0041,0.07397 0.74286166,0.74286166 0 0 0 0,3.03e-4 0.74286166,0.74286166 0 0 0 0.011,0.07314 0.74286166,0.74286166 0 0 0 0,3.02e-4 0.74286166,0.74286166 0 0 0 0.01829,0.07191 0.74286166,0.74286166 0 0 0 0.02544,0.06957 0.74286166,0.74286166 0 0 0 0,3.16e-4 0.74286166,0.74286166 0 0 0 0.03231,0.06668 0.74286166,0.74286166 0 0 0 0,3.03e-4 0.74286166,0.74286166 0 0 0 0.02379,0.03863 0.74286166,0.74286166 0 0 0 0.01499,0.02434 0.74286166,0.74286166 0 0 0 3.16e-4,3.02e-4 0.74286166,0.74286166 0 0 0 0.09528,0.113427 0.74286166,0.74286166 0 0 0 1.51e-4,3.02e-4 0.74286166,0.74286166 0 0 0 0.05568,0.04881 0.74286166,0.74286166 0 0 0 1.65e-4,3.02e-4 0.74286166,0.74286166 0 0 0 0.06022,0.04303 0.74286166,0.74286166 0 0 0 0.06434,0.03685 0.74286166,0.74286166 0 0 0 1.51e-4,0 0.74286166,0.74286166 0 0 0 0.06764,0.03025 0.74286166,0.74286166 0 0 0 1.52e-4,3.03e-4 0.74286166,0.74286166 0 0 0 0.04675,0.01554 0.74286166,0.74286166 0 0 0 0.02337,0.0082 0.74286166,0.74286166 0 0 0 3.02e-4,0 0.74286166,0.74286166 0 0 0 0.07232,0.01622 0.74286166,0.74286166 0 0 0 3.03e-4,0 0.74286166,0.74286166 0 0 0 0.07328,0.0096 0.74286166,0.74286166 0 0 0 3.16e-4,0 0.74286166,0.74286166 0 0 0 0.05266,0.0014 0.74286166,0.74286166 0 0 0 0.497454,-0.192385 h 0.0027 a 0.71773216,0.712192 0 0 1 0.504563,-0.206134 0.71773216,0.712192 0 0 1 0.475264,0.179806 0.712192,0.71773216 0 0 1 0.184823,0.480502 0.712192,0.71773216 0 0 1 -0.180259,0.475704 0.71773216,0.712192 0 0 1 -0.479828,0.18393 0.71773216,0.712192 0 0 1 -0.488298,-0.191478 h -0.0041 a 0.74286166,0.74286166 0 0 0 -0.513059,-0.206601 0.74286166,0.74286166 0 0 0 -0.742758,0.742772 0.74286166,0.74286166 0 0 0 0.742758,0.742992 0.74286166,0.74286166 0 0 0 0.497468,-0.192385 h 0.0027 a 0.71773216,0.712192 0 0 1 0.504562,-0.206134 0.71773216,0.712192 0 0 1 0.504343,0.206134 h 0.0028 a 0.74286166,0.74286166 0 0 0 1.51e-4,3.02e-4 0.74286166,0.74286166 0 0 0 0.05609,0.04592 0.74286166,0.74286166 0 0 0 0.0041,0.0014 0.74286166,0.74286166 0 0 0 0.05651,0.03781 0.74286166,0.74286166 0 0 0 0.0096,0.0055 0.74286166,0.74286166 0 0 0 0.05472,0.02887 0.74286166,0.74286166 0 0 0 0.011,0.0055 0.74286166,0.74286166 0 0 0 0.05678,0.0231 0.74286166,0.74286166 0 0 0 0.01375,0.0041 0.74286166,0.74286166 0 0 0 0.05431,0.01595 0.74286166,0.74286166 0 0 0 0.02351,0.0055 0.74286166,0.74286166 0 0 0 0.04716,0.0096 0.74286166,0.74286166 0 0 0 0.02928,0.0041 0.74286166,0.74286166 0 0 0 0.04633,0.0041 0.74286166,0.74286166 0 0 0 0.0341,0.0014 0.74286166,0.74286166 0 0 0 0.532968,-0.225368 0.74286166,0.74286166 0 0 0 0.09212,-0.116177 0.74286166,0.74286166 0 0 0 0.06737,-0.132399 0.74286166,0.74286166 0 0 0 0.05032,-0.268897 0.74286166,0.74286166 0 0 0 0,-3.02e-4 0.74286166,0.74286166 0 0 0 -0.0041,-0.07397 0.74286166,0.74286166 0 0 0 0,-3.16e-4 0.74286166,0.74286166 0 0 0 -0.02956,-0.14498 0.74286166,0.74286166 0 0 0 0,-3.03e-4 0.74286166,0.74286166 0 0 0 -0.153916,-0.27232 0.74286166,0.74286166 0 0 0 -0.01952,-0.02172 v -0.0014 a 0.712192,0.71773216 0 0 1 -0.191464,-0.488986 0.712192,0.71773216 0 0 1 0.191464,-0.488311 v -0.0027 a 0.74286166,0.74286166 0 0 0 0.04853,-0.05651 0.74286166,0.74286166 0 0 0 0.07878,-0.124151 0.74286166,0.74286166 0 0 0 7.57e-4,-0.0014 0.74286166,0.74286166 0 0 0 0.0041,-0.011 0.74286166,0.74286166 0 0 0 0.02502,-0.05678 0.74286166,0.74286166 0 0 0 0.02296,-0.07053 0.74286166,0.74286166 0 0 0 0.01581,-0.07218 0.74286166,0.74286166 0 0 0 0,-4.53e-4 0.74286166,0.74286166 0 0 0 9.07e-4,-0.0069 0.74286166,0.74286166 0 0 0 0.0069,-0.06613 0.74286166,0.74286166 0 0 0 0,-4.54e-4 0.74286166,0.74286166 0 0 0 0.0014,-0.04674 v -4.67e-4 a 0.74286166,0.74286166 0 0 0 -0.742772,-0.742759 0.74286166,0.74286166 0 0 0 -0.147482,0.01499 0.74286166,0.74286166 0 0 0 -0.07204,0.01829 0.74286166,0.74286166 0 0 0 -0.277366,0.158275 0.74286166,0.74286166 0 0 0 -0.01677,0.01512 h -0.0014 a 0.71773216,0.712192 0 0 1 -0.488999,0.191478 0.71773216,0.712192 0 0 1 -0.477987,-0.182541 0.712192,0.71773216 0 0 1 -0.181634,-0.477079 0.712192,0.71773216 0 0 1 0.191478,-0.488312 v -0.0027 a 0.74286166,0.74286166 0 0 0 0.206588,-0.513046 v -4.54e-4 a 0.74286166,0.74286166 0 0 0 -0.742772,-0.742964 z"
         id="path954" />
    </g>
  </g>
</svg>
